<svg xmlns="http://www.w3.org/2000/svg" xmlns:xlink="http://www.w3.org/1999/xlink" width="500" zoomAndPan="magnify" viewBox="0 0 375 374.999991" height="500" preserveAspectRatio="xMidYMid meet" version="1.0"><defs><clipPath id="cf10d658eb"><path d="M 37.5 236 L 140 236 L 140 261 L 37.5 261 Z M 37.5 236 " clip-rule="nonzero"/></clipPath><clipPath id="6ca9d20361"><path d="M 167 104 L 239 104 L 239 121.5 L 167 121.5 Z M 167 104 " clip-rule="nonzero"/></clipPath></defs><g clip-path="url(#cf10d658eb)"><path fill="#ffffff" d="M 114.300781 236.449219 C 112.066406 236.585938 109.875 236.960938 107.722656 237.574219 C 105.570312 238.191406 103.511719 239.03125 101.546875 240.097656 C 99.578125 241.164062 97.75 242.433594 96.0625 243.902344 C 94.371094 245.367188 92.863281 247 91.53125 248.800781 C 75.449219 232.207031 51.84375 233.589844 37.53125 252.949219 C 37.53125 253.175781 37.53125 253.398438 37.886719 253.269531 C 54.675781 240.40625 74.679688 241.917969 87.542969 258.898438 C 87.976562 259.535156 88.550781 260.007812 89.261719 260.308594 C 89.96875 260.613281 90.707031 260.699219 91.464844 260.570312 C 91.878906 260.640625 92.289062 260.648438 92.703125 260.589844 C 93.113281 260.53125 93.507812 260.410156 93.882812 260.230469 C 94.257812 260.046875 94.59375 259.8125 94.898438 259.527344 C 95.199219 259.238281 95.449219 258.910156 95.648438 258.546875 C 96.652344 256.65625 97.835938 254.886719 99.195312 253.230469 C 100.550781 251.578125 102.058594 250.074219 103.714844 248.71875 C 105.371094 247.363281 107.144531 246.183594 109.035156 245.179688 C 110.925781 244.175781 112.894531 243.367188 114.945312 242.753906 C 117.0625 242.25 119.203125 242.082031 121.375 242.25 C 123.542969 242.421875 125.636719 242.921875 127.648438 243.75 C 131.667969 245.199219 134.625 249.058594 138.839844 249.476562 C 138.960938 249.480469 139.078125 249.453125 139.191406 249.402344 C 139.300781 249.351562 139.394531 249.28125 139.472656 249.1875 C 139.550781 249.09375 139.605469 248.988281 139.636719 248.867188 C 139.664062 248.75 139.667969 248.632812 139.644531 248.511719 C 137.8125 239.890625 121.664062 236.320312 114.300781 236.449219 Z M 114.300781 236.449219 " fill-opacity="1" fill-rule="nonzero"/></g><path fill="#ffffff" d="M 296.796875 181.429688 C 294.3125 181.578125 291.871094 181.996094 289.476562 182.679688 C 287.082031 183.363281 284.792969 184.296875 282.601562 185.484375 C 280.414062 186.671875 278.378906 188.078125 276.5 189.710938 C 274.617188 191.34375 272.9375 193.164062 271.457031 195.164062 C 253.542969 176.703125 227.296875 178.246094 211.410156 199.761719 C 211.21875 200.019531 211.570312 200.277344 211.796875 200.117188 C 230.449219 185.867188 252.738281 187.476562 267.050781 206.355469 C 267.28125 206.707031 267.5625 207.019531 267.886719 207.292969 C 268.210938 207.5625 268.566406 207.785156 268.957031 207.953125 C 269.34375 208.121094 269.746094 208.230469 270.167969 208.28125 C 270.585938 208.332031 271.007812 208.324219 271.421875 208.253906 C 271.878906 208.324219 272.335938 208.324219 272.792969 208.253906 C 273.25 208.183594 273.683594 208.046875 274.097656 207.839844 C 274.511719 207.636719 274.886719 207.375 275.222656 207.054688 C 275.554688 206.738281 275.832031 206.375 276.054688 205.96875 C 277.167969 203.875 278.476562 201.910156 279.980469 200.074219 C 281.480469 198.238281 283.148438 196.566406 284.980469 195.0625 C 286.8125 193.554688 288.777344 192.242188 290.867188 191.121094 C 292.960938 190.003906 295.140625 189.097656 297.410156 188.410156 C 299.761719 187.84375 302.144531 187.65625 304.558594 187.851562 C 306.972656 188.042969 309.292969 188.605469 311.527344 189.535156 C 316.03125 191.144531 319.3125 195.421875 324.007812 195.96875 C 324.140625 195.972656 324.269531 195.945312 324.390625 195.890625 C 324.511719 195.832031 324.617188 195.753906 324.699219 195.648438 C 324.785156 195.546875 324.84375 195.429688 324.875 195.296875 C 324.90625 195.167969 324.90625 195.035156 324.875 194.90625 C 323.140625 185.257812 305 181.207031 296.796875 181.429688 Z M 296.796875 181.429688 " fill-opacity="1" fill-rule="nonzero"/><g clip-path="url(#6ca9d20361)"><path fill="#ffffff" d="M 221.140625 104.597656 C 219.589844 104.6875 218.066406 104.945312 216.574219 105.371094 C 215.078125 105.796875 213.648438 106.378906 212.28125 107.117188 C 210.914062 107.859375 209.644531 108.734375 208.46875 109.753906 C 207.292969 110.769531 206.242188 111.902344 205.316406 113.152344 C 194.125 101.636719 177.757812 102.601562 167.816406 116.046875 C 167.816406 116.046875 167.816406 116.367188 168.074219 116.273438 C 179.71875 107.363281 193.613281 108.359375 202.550781 120.164062 C 202.855469 120.609375 203.253906 120.9375 203.746094 121.152344 C 204.242188 121.367188 204.753906 121.433594 205.285156 121.351562 C 205.867188 121.441406 206.425781 121.355469 206.953125 121.097656 C 207.484375 120.839844 207.890625 120.453125 208.179688 119.9375 C 208.875 118.628906 209.695312 117.402344 210.632812 116.253906 C 211.574219 115.109375 212.613281 114.066406 213.761719 113.125 C 214.90625 112.183594 216.132812 111.363281 217.4375 110.664062 C 218.746094 109.964844 220.109375 109.402344 221.527344 108.972656 C 222.988281 108.636719 224.46875 108.535156 225.960938 108.667969 C 227.457031 108.796875 228.894531 109.15625 230.273438 109.742188 C 233.074219 110.738281 235.132812 113.441406 238.058594 113.730469 C 238.144531 113.734375 238.226562 113.71875 238.300781 113.679688 C 238.378906 113.644531 238.445312 113.59375 238.5 113.527344 C 238.550781 113.460938 238.589844 113.386719 238.605469 113.304688 C 238.625 113.222656 238.625 113.136719 238.605469 113.054688 C 237.480469 107.074219 226.253906 104.597656 221.140625 104.597656 Z M 221.140625 104.597656 " fill-opacity="1" fill-rule="nonzero"/></g></svg>