<svg xmlns="http://www.w3.org/2000/svg" xmlns:xlink="http://www.w3.org/1999/xlink" width="500" zoomAndPan="magnify" viewBox="0 0 375 374.999991" height="500" preserveAspectRatio="xMidYMid meet" version="1.0"><defs><clipPath id="a9ae04bffb"><path d="M 14.472656 201 L 117 201 L 117 227 L 14.472656 227 Z M 14.472656 201 " clip-rule="nonzero"/></clipPath><clipPath id="1f4b8b62a0"><path d="M 132 249 L 203 249 L 203 266.472656 L 132 266.472656 Z M 132 249 " clip-rule="nonzero"/></clipPath><clipPath id="918929bbdb"><path d="M 307 146 L 360.222656 146 L 360.222656 159 L 307 159 Z M 307 146 " clip-rule="nonzero"/></clipPath></defs><path fill="#e0e0e0" d="M 73.328125 138.484375 C 97.253906 120.183594 125.847656 122.40625 144.242188 146.527344 C 144.542969 146.972656 144.902344 147.371094 145.316406 147.714844 C 145.734375 148.0625 146.1875 148.339844 146.683594 148.554688 C 147.183594 148.769531 147.699219 148.90625 148.234375 148.972656 C 148.769531 149.039062 149.304688 149.027344 149.839844 148.9375 C 150.4375 149.050781 151.042969 149.070312 151.648438 148.992188 C 152.257812 148.914062 152.835938 148.742188 153.386719 148.480469 C 153.941406 148.214844 154.4375 147.875 154.882812 147.453125 C 155.324219 147.03125 155.691406 146.550781 155.980469 146.011719 C 162.414062 135.398438 171.097656 126.714844 183.414062 123.5 C 186.433594 122.777344 189.488281 122.539062 192.578125 122.78125 C 195.671875 123.023438 198.652344 123.734375 201.519531 124.914062 C 207.277344 127.003906 211.523438 132.503906 217.601562 133.082031 C 217.773438 133.09375 217.941406 133.0625 218.101562 132.992188 C 218.257812 132.925781 218.394531 132.824219 218.503906 132.691406 C 218.617188 132.558594 218.691406 132.40625 218.730469 132.238281 C 218.769531 132.070312 218.769531 131.898438 218.726562 131.730469 C 216.027344 119.414062 192.964844 114.492188 182.449219 114.492188 C 169.167969 114.71875 158.039062 122.210938 149.902344 132.117188 C 127.035156 108.414062 93.203125 110.375 72.8125 138.035156 C 72.554688 138.355469 73.039062 138.679688 73.328125 138.484375 Z M 73.328125 138.484375 " fill-opacity="1" fill-rule="nonzero"/><path fill="#e0e0e0" d="M 232.558594 179.039062 C 230.070312 179.1875 227.632812 179.605469 225.238281 180.289062 C 222.84375 180.972656 220.550781 181.90625 218.359375 183.09375 C 216.171875 184.28125 214.136719 185.691406 212.257812 187.324219 C 210.375 188.953125 208.695312 190.773438 207.214844 192.773438 C 189.300781 174.3125 163.054688 175.855469 147.167969 197.371094 C 146.976562 197.628906 147.328125 197.886719 147.554688 197.726562 C 166.207031 183.480469 188.496094 185.085938 202.808594 203.964844 C 203.042969 204.316406 203.320312 204.628906 203.644531 204.902344 C 203.96875 205.175781 204.324219 205.394531 204.714844 205.5625 C 205.101562 205.730469 205.503906 205.839844 205.925781 205.890625 C 206.347656 205.941406 206.765625 205.933594 207.179688 205.863281 C 207.636719 205.933594 208.09375 205.933594 208.550781 205.863281 C 209.007812 205.792969 209.441406 205.65625 209.855469 205.449219 C 210.269531 205.246094 210.644531 204.984375 210.980469 204.664062 C 211.3125 204.347656 211.589844 203.984375 211.8125 203.578125 C 212.925781 201.484375 214.234375 199.519531 215.738281 197.683594 C 217.242188 195.847656 218.90625 194.175781 220.738281 192.671875 C 222.574219 191.164062 224.535156 189.851562 226.625 188.730469 C 228.71875 187.613281 230.898438 186.707031 233.167969 186.019531 C 235.519531 185.453125 237.902344 185.269531 240.316406 185.460938 C 242.730469 185.652344 245.050781 186.214844 247.285156 187.144531 C 251.789062 188.753906 255.070312 193.03125 259.765625 193.578125 C 259.898438 193.582031 260.027344 193.554688 260.148438 193.5 C 260.269531 193.441406 260.375 193.363281 260.460938 193.257812 C 260.542969 193.15625 260.601562 193.039062 260.632812 192.90625 C 260.664062 192.777344 260.664062 192.648438 260.632812 192.515625 C 258.898438 182.867188 240.757812 178.816406 232.558594 179.039062 Z M 232.558594 179.039062 " fill-opacity="1" fill-rule="nonzero"/><g clip-path="url(#a9ae04bffb)"><path fill="#e0e0e0" d="M 91.273438 201.84375 C 89.039062 201.976562 86.847656 202.351562 84.695312 202.96875 C 82.542969 203.582031 80.484375 204.425781 78.515625 205.492188 C 76.550781 206.558594 74.722656 207.824219 73.03125 209.292969 C 71.34375 210.761719 69.832031 212.394531 68.503906 214.191406 C 52.421875 197.597656 28.816406 198.980469 14.503906 218.339844 C 14.503906 218.566406 14.503906 218.792969 14.859375 218.664062 C 31.644531 205.796875 51.648438 207.308594 64.515625 224.292969 C 64.949219 224.929688 65.523438 225.398438 66.230469 225.703125 C 66.941406 226.003906 67.675781 226.089844 68.4375 225.964844 C 68.847656 226.035156 69.261719 226.039062 69.671875 225.980469 C 70.085938 225.925781 70.480469 225.804688 70.855469 225.621094 C 71.230469 225.441406 71.566406 225.207031 71.867188 224.917969 C 72.171875 224.628906 72.421875 224.304688 72.617188 223.9375 C 73.625 222.050781 74.808594 220.277344 76.164062 218.625 C 77.523438 216.96875 79.03125 215.464844 80.6875 214.109375 C 82.34375 212.753906 84.117188 211.574219 86.003906 210.570312 C 87.894531 209.566406 89.867188 208.757812 91.914062 208.144531 C 94.03125 207.640625 96.175781 207.472656 98.347656 207.644531 C 100.515625 207.8125 102.605469 208.3125 104.621094 209.144531 C 108.640625 210.589844 111.597656 214.449219 115.8125 214.867188 C 115.933594 214.871094 116.050781 214.847656 116.160156 214.796875 C 116.273438 214.746094 116.367188 214.671875 116.445312 214.578125 C 116.523438 214.484375 116.578125 214.378906 116.609375 214.261719 C 116.636719 214.140625 116.640625 214.023438 116.617188 213.902344 C 114.78125 205.285156 98.636719 201.714844 91.273438 201.84375 Z M 91.273438 201.84375 " fill-opacity="1" fill-rule="nonzero"/></g><g clip-path="url(#1f4b8b62a0)"><path fill="#e0e0e0" d="M 185.441406 249.570312 C 183.890625 249.660156 182.367188 249.917969 180.871094 250.34375 C 179.378906 250.769531 177.945312 251.351562 176.578125 252.089844 C 175.210938 252.832031 173.941406 253.707031 172.769531 254.726562 C 171.59375 255.746094 170.542969 256.878906 169.617188 258.125 C 158.425781 246.609375 142.054688 247.574219 132.117188 261.019531 C 132.117188 261.019531 132.117188 261.339844 132.375 261.246094 C 144.015625 252.335938 157.910156 253.332031 166.851562 265.136719 C 167.15625 265.582031 167.554688 265.910156 168.046875 266.125 C 168.539062 266.339844 169.054688 266.40625 169.585938 266.324219 C 170.167969 266.414062 170.722656 266.328125 171.253906 266.070312 C 171.78125 265.8125 172.191406 265.425781 172.480469 264.910156 C 173.175781 263.601562 173.992188 262.375 174.933594 261.226562 C 175.871094 260.082031 176.914062 259.039062 178.058594 258.097656 C 179.203125 257.15625 180.429688 256.335938 181.738281 255.636719 C 183.046875 254.9375 184.40625 254.375 185.828125 253.945312 C 187.289062 253.609375 188.765625 253.507812 190.261719 253.640625 C 191.753906 253.769531 193.195312 254.128906 194.574219 254.714844 C 197.371094 255.710938 199.429688 258.414062 202.359375 258.703125 C 202.441406 258.707031 202.523438 258.691406 202.601562 258.652344 C 202.679688 258.617188 202.746094 258.566406 202.796875 258.5 C 202.851562 258.433594 202.886719 258.359375 202.90625 258.277344 C 202.925781 258.195312 202.925781 258.109375 202.902344 258.027344 C 201.777344 252.046875 190.554688 249.570312 185.441406 249.570312 Z M 185.441406 249.570312 " fill-opacity="1" fill-rule="nonzero"/></g><g clip-path="url(#918929bbdb)"><path fill="#e0e0e0" d="M 347.4375 146.011719 C 346.269531 146.082031 345.121094 146.273438 343.996094 146.59375 C 342.867188 146.914062 341.789062 147.351562 340.761719 147.910156 C 339.730469 148.464844 338.769531 149.125 337.886719 149.890625 C 337 150.652344 336.207031 151.503906 335.503906 152.441406 C 335.050781 151.929688 334.570312 151.445312 334.0625 150.984375 C 333.554688 150.527344 333.019531 150.101562 332.464844 149.707031 C 331.90625 149.308594 331.324219 148.945312 330.726562 148.617188 C 330.125 148.289062 329.507812 147.996094 328.875 147.738281 C 328.238281 147.480469 327.59375 147.261719 326.933594 147.078125 C 326.273438 146.894531 325.605469 146.753906 324.929688 146.648438 C 324.253906 146.542969 323.574219 146.476562 322.890625 146.449219 C 322.207031 146.425781 321.523438 146.4375 320.839844 146.488281 C 320.15625 146.542969 319.480469 146.636719 318.808594 146.765625 C 318.136719 146.898438 317.476562 147.066406 316.824219 147.273438 C 316.171875 147.484375 315.535156 147.726562 314.910156 148.011719 C 314.285156 148.292969 313.679688 148.609375 313.09375 148.960938 C 312.507812 149.3125 311.941406 149.699219 311.402344 150.113281 C 310.859375 150.53125 310.34375 150.980469 309.851562 151.457031 C 309.359375 151.933594 308.898438 152.4375 308.46875 152.96875 C 308.035156 153.5 307.636719 154.054688 307.265625 154.628906 C 307.265625 154.628906 307.265625 154.855469 307.460938 154.628906 C 316.242188 147.910156 326.757812 148.679688 333.445312 157.558594 C 333.671875 157.886719 333.964844 158.136719 334.332031 158.296875 C 334.695312 158.460938 335.078125 158.511719 335.472656 158.457031 C 335.914062 158.527344 336.332031 158.464844 336.734375 158.269531 C 337.132812 158.078125 337.441406 157.785156 337.660156 157.394531 C 338.722656 155.402344 340.125 153.691406 341.867188 152.257812 C 343.613281 150.828125 345.566406 149.785156 347.726562 149.128906 C 349.992188 148.578125 352.199219 148.75 354.351562 149.644531 C 356.472656 150.417969 358.019531 152.410156 360.238281 152.636719 C 360.367188 152.640625 360.46875 152.59375 360.550781 152.492188 C 360.632812 152.390625 360.65625 152.277344 360.621094 152.152344 C 359.722656 147.8125 351.265625 145.945312 347.4375 146.011719 Z M 347.4375 146.011719 " fill-opacity="1" fill-rule="nonzero"/></g></svg>