<svg xmlns="http://www.w3.org/2000/svg" xmlns:xlink="http://www.w3.org/1999/xlink" width="500" zoomAndPan="magnify" viewBox="0 0 375 374.999991" height="500" preserveAspectRatio="xMidYMid meet" version="1.0"><defs><g/><clipPath id="06d8a6f01f"><path d="M 8.476562 81 L 265 81 L 265 208 L 8.476562 208 Z M 8.476562 81 " clip-rule="nonzero"/></clipPath><clipPath id="c1f32b4008"><path d="M 202 107 L 366.226562 107 L 366.226562 175 L 202 175 Z M 202 107 " clip-rule="nonzero"/></clipPath></defs><rect x="-37.5" width="450" fill="#ffffff" y="-37.499999" height="449.999989" fill-opacity="1"/><rect x="-37.5" width="450" fill="#f1eddc" y="-37.499999" height="449.999989" fill-opacity="1"/><g fill="#271f0e" fill-opacity="1"><g transform="translate(73.325621, 264.295414)"><g><path d="M 3.515625 -1.40625 L 3.46875 -15.875 L 3.5625 -16.984375 L 3.46875 -17.890625 L 3.515625 -18.8125 L 3.625 -19.671875 L 3.515625 -20.78125 L 3.625 -21.65625 L 3.5625 -22.671875 L 3.46875 -23.484375 L 3.671875 -28.890625 L 3.515625 -30.34375 L 3.671875 -32.3125 L 3.953125 -33.1875 L 5.015625 -33.71875 L 6.359375 -33.671875 L 7.375 -33.765625 L 9.84375 -33.765625 L 10.703125 -33.671875 L 12.59375 -33.671875 L 14.078125 -33.765625 L 15.046875 -33.71875 L 16.5 -33.8125 L 17.359375 -33.71875 L 19.25 -33.8125 L 20.3125 -33.671875 L 23.203125 -33.71875 L 24.015625 -33.1875 L 24.59375 -31.734375 L 24.5 -29.90625 L 24.59375 -27.453125 L 24.125 -26.484375 L 23.15625 -26 L 19.484375 -26.09375 L 18.46875 -26 L 17.515625 -26.046875 L 16.640625 -26 L 15.234375 -26.09375 L 13.703125 -26.09375 L 12.78125 -25.46875 L 12.296875 -24.5 L 12.390625 -22.328125 L 12.296875 -21.421875 L 12.296875 -20.0625 L 12.828125 -19.046875 L 13.796875 -18.671875 L 14.859375 -18.71875 L 16.734375 -18.46875 L 19.296875 -18.671875 L 21.65625 -18.5625 L 22.671875 -18.1875 L 23.15625 -17.21875 L 23.203125 -12.921875 L 22.71875 -11.4375 L 21.703125 -10.953125 L 19.734375 -10.859375 L 18.765625 -10.953125 L 17.75 -10.90625 L 16.78125 -11 L 15.828125 -10.796875 L 14.8125 -11 L 13.75 -10.90625 L 12.78125 -10.46875 L 12.34375 -9.5 L 12.390625 -4.390625 L 12.296875 -3.46875 L 12.4375 -1.921875 L 11.859375 -0.484375 L 10.859375 -0.046875 L 8.4375 0.140625 L 5.0625 0 L 4 -0.484375 Z M 3.515625 -1.40625 "/></g></g></g><g fill="#271f0e" fill-opacity="1"><g transform="translate(109.252649, 264.295414)"><g><path d="M 0.625 -1.296875 L 1.203125 -3.328125 L 1.640625 -4.296875 L 2.21875 -5.0625 L 3.625 -8.578125 L 4.96875 -11.09375 L 5.3125 -12.0625 L 5.734375 -12.828125 L 6.03125 -13.84375 L 6.703125 -15.09375 L 7.046875 -16.015625 L 7.765625 -17.265625 L 8.53125 -19 L 9.0625 -19.875 L 9.3125 -20.6875 L 12.015625 -26.765625 L 12.546875 -27.640625 L 14.609375 -31.984375 L 14.90625 -32.84375 L 15.828125 -33.71875 L 17.359375 -34.203125 L 19 -33.765625 L 19.875 -32.84375 L 20.15625 -31.9375 L 20.59375 -31.203125 L 21.375 -29.375 L 22.328125 -27.59375 L 23.0625 -25.90625 L 23.296875 -25.125 L 24.171875 -23.296875 L 24.453125 -22.375 L 25.421875 -20.6875 L 25.65625 -19.78125 L 26.140625 -18.953125 L 26.53125 -18.140625 L 27.0625 -17.265625 L 27.34375 -16.296875 L 27.78125 -15.578125 L 28.125 -14.609375 L 28.5625 -13.796875 L 28.9375 -12.828125 L 29.46875 -12.0625 L 30.140625 -10.28125 L 30.625 -9.453125 L 30.96875 -8.53125 L 31.78125 -6.796875 L 32.078125 -5.890625 L 32.5625 -5.15625 L 32.84375 -4.203125 L 33.46875 -3.375 L 33.8125 -2.515625 L 34.109375 -1.296875 L 33.90625 -0.296875 L 33.046875 0 L 30.046875 0.09375 L 28.359375 -0.046875 L 27.5 0.046875 L 26.234375 -0.4375 L 25.421875 -1.203125 L 24.890625 -2.078125 L 24.640625 -2.9375 L 23.640625 -3.71875 L 22.046875 -4.25 L 19.78125 -4.140625 L 18.765625 -4.25 L 17.890625 -4.25 L 16.78125 -4.09375 L 15.765625 -4.25 L 13.078125 -4.203125 L 12.109375 -4.296875 L 10.953125 -3.8125 L 10.125 -2.890625 L 9.3125 -1.25 L 8.4375 -0.390625 L 7.328125 0.09375 L 6.078125 -0.046875 L 1.828125 -0.046875 L 0.875 -0.296875 Z M 15.53125 -11.90625 L 19.296875 -11.96875 L 20.109375 -12.34375 L 20.203125 -13.21875 L 19.875 -14.078125 L 19.390625 -15.046875 L 19.203125 -15.828125 L 18.671875 -16.640625 L 18.046875 -18.515625 L 17.453125 -18.90625 L 16.828125 -18.421875 L 16.40625 -17.65625 L 14.46875 -13.265625 L 14.609375 -12.296875 Z M 15.53125 -11.90625 "/></g></g></g><g fill="#271f0e" fill-opacity="1"><g transform="translate(153.907523, 264.295414)"><g><path d="M 3.5625 -1.40625 L 3.671875 -2.3125 L 3.46875 -9.171875 L 3.671875 -10.078125 L 3.515625 -31.359375 L 3.625 -32.359375 L 4.140625 -33.328125 L 5.109375 -33.859375 L 6.515625 -33.46875 L 7.90625 -32.46875 L 8.96875 -31.359375 L 9.5 -30.671875 L 10.171875 -30.046875 L 10.703125 -29.328125 L 11.328125 -28.65625 L 12.15625 -27.921875 L 13.3125 -26.484375 L 16.640625 -23.0625 L 17.21875 -22.28125 L 17.984375 -21.65625 L 18.5625 -20.84375 L 19.203125 -20.203125 L 20.0625 -19.921875 L 21.125 -20.265625 L 28.265625 -27.828125 L 28.703125 -28.5625 L 31.453125 -31.40625 L 32.5625 -32.75 L 33.765625 -33.421875 L 35.21875 -33.859375 L 36.171875 -33.28125 L 36.703125 -32.359375 L 36.65625 -31.359375 L 36.75 -30.53125 L 36.65625 -29.515625 L 36.796875 -15.875 L 36.65625 -15 L 36.75 -14.03125 L 36.65625 -13.015625 L 36.703125 -12.0625 L 36.5625 -11.09375 L 36.65625 -9.21875 L 36.5625 -8.296875 L 36.75 -2.515625 L 36.609375 -1.546875 L 36.078125 -0.53125 L 35.15625 0.046875 L 29.375 0 L 28.3125 -0.390625 L 27.828125 -1.40625 L 27.96875 -8.0625 L 27.828125 -9.84375 L 27.875 -10.796875 L 27.828125 -11.671875 L 27.96875 -12.59375 L 27.828125 -13.546875 L 27.453125 -14.125 L 26.859375 -14.03125 L 26.1875 -13.359375 L 25.5625 -12.546875 L 21.515625 -8.4375 L 20.6875 -7.859375 L 19.578125 -7.859375 L 17.984375 -9.171875 L 17.359375 -9.984375 L 14.65625 -12.546875 L 13.453125 -14.03125 L 12.734375 -14.234375 L 12.296875 -13.546875 L 12.5 -10.75 L 12.34375 -4.25 L 12.5 -3.234375 L 12.546875 -2.21875 L 12.4375 -1.296875 L 11.90625 -0.53125 L 10.46875 -0.09375 L 5.15625 0 L 4 -0.53125 Z M 3.5625 -1.40625 "/></g></g></g><g fill="#271f0e" fill-opacity="1"><g transform="translate(203.866604, 264.295414)"><g><path d="M 2.3125 -1.40625 L 2.3125 -5.109375 L 2.40625 -6.03125 L 2.984375 -6.953125 L 6.171875 -7.953125 L 6.65625 -9.015625 L 6.75 -10.90625 L 6.5625 -12.96875 L 6.796875 -13.9375 L 6.609375 -15.828125 L 6.703125 -16.78125 L 6.75 -18.765625 L 6.609375 -19.875 L 6.5625 -20.6875 L 6.703125 -24.796875 L 6.078125 -25.65625 L 3.140625 -26.671875 L 2.65625 -27.59375 L 2.65625 -28.5 L 2.5625 -29.46875 L 2.5625 -30.53125 L 2.65625 -31.359375 L 2.65625 -32.265625 L 3.1875 -33.28125 L 4.25 -33.765625 L 6.125 -33.671875 L 7.046875 -33.71875 L 9.984375 -33.671875 L 11.046875 -33.765625 L 17.171875 -33.71875 L 18.71875 -33.28125 L 19.09375 -32.3125 L 19.203125 -31.359375 L 19.09375 -30.484375 L 19.09375 -27.640625 L 18.5625 -26.71875 L 17.65625 -26.1875 L 16.59375 -26.140625 L 15.671875 -25.609375 L 15.140625 -24.75 L 15.140625 -22.71875 L 15.234375 -21.703125 L 15.140625 -20.734375 L 15.234375 -19.828125 L 15.140625 -18.328125 L 15.234375 -16.875 L 15.046875 -14.859375 L 15.234375 -12.921875 L 15.140625 -8.96875 L 15.671875 -8 L 18.90625 -7 L 19.578125 -6.171875 L 19.4375 -3.234375 L 19.53125 -2.359375 L 19.53125 -1.296875 L 19 -0.4375 L 18.09375 0.046875 L 3.765625 -0.046875 L 2.796875 -0.390625 Z M 2.3125 -1.40625 "/></g></g></g><g fill="#271f0e" fill-opacity="1"><g transform="translate(235.405604, 264.295414)"><g><path d="M 3.625 -1.40625 L 3.515625 -2.40625 L 3.71875 -3.328125 L 3.625 -4.296875 L 3.671875 -10.171875 L 3.5625 -11.046875 L 3.515625 -12.96875 L 3.671875 -13.9375 L 3.515625 -15.875 L 3.671875 -16.78125 L 3.515625 -18.859375 L 3.671875 -19.78125 L 3.5625 -20.734375 L 3.71875 -21.609375 L 3.5625 -22.625 L 3.671875 -23.59375 L 3.625 -24.5 L 3.765625 -25.5625 L 3.671875 -26.484375 L 3.515625 -27.453125 L 3.671875 -28.453125 L 3.765625 -29.375 L 3.46875 -31.890625 L 4.09375 -33.1875 L 5.5 -33.71875 L 10.515625 -33.8125 L 11.765625 -33.234375 L 12.25 -31.78125 L 12.34375 -29.421875 L 12.25 -28.359375 L 12.390625 -20.84375 L 12.25 -19.828125 L 12.390625 -18.765625 L 12.25 -17.40625 L 12.296875 -15 L 12.203125 -13.984375 L 12.296875 -13.015625 L 12.25 -11.96875 L 12.390625 -11.046875 L 12.34375 -9.265625 L 12.640625 -8.203125 L 13.65625 -7.765625 L 22.140625 -7.671875 L 23.203125 -7.8125 L 23.96875 -7.328125 L 24.59375 -6.265625 L 24.453125 -5.359375 L 24.59375 -4.296875 L 24.5 -3.421875 L 24.453125 -2.453125 L 24.546875 -1.40625 L 24.015625 -0.53125 L 22.671875 -0.046875 L 5.59375 0.046875 L 4.046875 -0.53125 Z M 3.625 -1.40625 "/></g></g></g><g fill="#271f0e" fill-opacity="1"><g transform="translate(270.995091, 264.295414)"><g><path d="M 11.09375 -1.34375 L 11.1875 -2.359375 L 10.953125 -4.34375 L 11 -6.171875 L 11.09375 -7.046875 L 11.046875 -7.953125 L 10.953125 -8.921875 L 11 -12.734375 L 10.75 -14.125 L 10.375 -15.390625 L 6.078125 -22.140625 L 5.6875 -22.953125 L 0.484375 -31.203125 L 0 -32.359375 L 0.09375 -33.421875 L 1.15625 -33.71875 L 7.53125 -33.8125 L 8.734375 -33.28125 L 9.796875 -32.515625 L 10.171875 -31.546875 L 10.703125 -30.71875 L 13.125 -26.484375 L 13.40625 -25.515625 L 13.84375 -24.640625 L 14.953125 -22.90625 L 15.625 -23.015625 L 17.21875 -25.609375 L 17.9375 -27.34375 L 19.046875 -28.9375 L 19.34375 -29.859375 L 19.96875 -30.78125 L 20.78125 -32.40625 L 21.796875 -33.328125 L 23.015625 -33.8125 L 23.921875 -33.71875 L 25.75 -33.71875 L 26.765625 -33.859375 L 28.65625 -33.71875 L 29.609375 -33.859375 L 30.53125 -33.46875 L 30.671875 -32.3125 L 30 -31.15625 L 29.671875 -30.296875 L 29.078125 -29.5625 L 23.53125 -20.40625 L 22.328125 -18.8125 L 21.796875 -17.984375 L 21.421875 -17.078125 L 19.734375 -14.125 L 19.484375 -12.734375 L 19.671875 -11.859375 L 19.53125 -9.0625 L 19.671875 -8.0625 L 19.4375 -5.109375 L 19.484375 -4.25 L 19.4375 -3.328125 L 19.53125 -2.3125 L 19.53125 -1.5 L 19.046875 -0.53125 L 17.609375 -0.046875 L 16.25 0 L 15.234375 -0.046875 L 14.28125 0.046875 L 12.546875 -0.046875 L 11.625 -0.53125 Z M 11.09375 -1.34375 "/></g></g></g><g fill="#271f0e" fill-opacity="1"><g transform="translate(87.896692, 291.462634)"><g><path d="M 2.125 0.0625 L 1.71875 -0.203125 L 1.5 -0.640625 L 1.515625 -5.15625 L 1.46875 -5.546875 L 1.53125 -7.609375 L 1.5 -8.03125 L 1.515625 -11.296875 L 1.46875 -11.671875 L 1.53125 -12.46875 L 1.46875 -13.71875 L 1.703125 -14.140625 L 2.15625 -14.34375 L 2.71875 -14.1875 L 3.1875 -13.84375 L 3.71875 -13.28125 L 4.046875 -13 L 4.578125 -12.359375 L 4.875 -12.125 L 6.734375 -10.046875 L 7.1875 -9.640625 L 7.546875 -9.171875 L 7.84375 -8.890625 L 8.078125 -8.53125 L 8.515625 -8.375 L 8.890625 -8.625 L 10.125 -9.890625 L 10.390625 -10.234375 L 12.203125 -12.078125 L 12.484375 -12.4375 L 12.734375 -12.671875 L 13 -13 L 13.859375 -13.890625 L 14.28125 -14.171875 L 14.875 -14.34375 L 15.3125 -14.125 L 15.5625 -13.6875 L 15.515625 -13.296875 L 15.53125 -12.46875 L 15.515625 -12.125 L 15.5625 -11.234375 L 15.53125 -10.84375 L 15.5625 -8.828125 L 15.515625 -8.375 L 15.5625 -2.234375 L 15.515625 -1.828125 L 15.578125 -0.75 L 15.328125 -0.15625 L 14.90625 0.0625 L 12.421875 -0.015625 L 12 -0.140625 L 11.828125 -0.609375 L 11.828125 -0.921875 L 11.796875 -1.84375 L 11.828125 -2.203125 L 11.796875 -2.96875 L 11.828125 -3.765625 L 11.765625 -4.578125 L 11.8125 -5.703125 L 11.640625 -6.015625 L 11.375 -5.890625 L 10.546875 -5.03125 L 10.25 -4.828125 L 9.6875 -4.15625 L 9.4375 -3.90625 L 9.15625 -3.609375 L 8.734375 -3.296875 L 8.296875 -3.3125 L 7.859375 -3.625 L 7.3125 -4.15625 L 7.046875 -4.484375 L 6.203125 -5.328125 L 5.953125 -5.625 L 5.625 -5.890625 L 5.421875 -5.984375 L 5.234375 -5.796875 L 5.234375 -5 L 5.28125 -4.546875 L 5.234375 -3.8125 L 5.265625 -3.375 L 5.203125 -2.75 L 5.265625 -0.59375 L 5.015625 -0.21875 L 4.4375 0.015625 L 3.78125 -0.015625 L 3.34375 0.046875 L 2.53125 0 Z M 2.125 0.0625 "/></g></g></g><g fill="#271f0e" fill-opacity="1"><g transform="translate(114.440885, 291.462634)"><g><path d="M 0.984375 -0.59375 L 0.984375 -2.171875 L 1.015625 -2.5625 L 1.265625 -2.953125 L 2.625 -3.375 L 2.828125 -3.828125 L 2.859375 -4.625 L 2.78125 -5.5 L 2.890625 -5.921875 L 2.796875 -6.71875 L 2.84375 -7.125 L 2.859375 -7.96875 L 2.796875 -8.4375 L 2.78125 -8.78125 L 2.84375 -10.515625 L 2.578125 -10.890625 L 1.328125 -11.3125 L 1.125 -11.703125 L 1.125 -12.09375 L 1.078125 -12.5 L 1.078125 -12.953125 L 1.125 -13.296875 L 1.125 -13.6875 L 1.34375 -14.125 L 1.796875 -14.328125 L 2.59375 -14.28125 L 2.984375 -14.3125 L 4.234375 -14.28125 L 4.6875 -14.328125 L 7.28125 -14.3125 L 7.9375 -14.125 L 8.109375 -13.71875 L 8.140625 -13.296875 L 8.109375 -12.9375 L 8.109375 -11.734375 L 7.875 -11.34375 L 7.484375 -11.109375 L 7.046875 -11.09375 L 6.65625 -10.875 L 6.421875 -10.5 L 6.421875 -9.640625 L 6.46875 -9.203125 L 6.421875 -8.796875 L 6.46875 -8.40625 L 6.421875 -7.78125 L 6.46875 -7.15625 L 6.390625 -6.296875 L 6.46875 -5.484375 L 6.421875 -3.8125 L 6.65625 -3.390625 L 8.03125 -2.96875 L 8.3125 -2.625 L 8.25 -1.375 L 8.296875 -1 L 8.296875 -0.546875 L 8.0625 -0.1875 L 7.671875 0.015625 L 1.59375 -0.015625 L 1.1875 -0.15625 Z M 0.984375 -0.59375 "/></g></g></g><g fill="#271f0e" fill-opacity="1"><g transform="translate(133.167138, 291.462634)"><g><path d="M 7.484375 0.25 L 7.0625 0.203125 L 5.921875 -0.046875 L 4.765625 -0.453125 L 4.40625 -0.640625 L 3.09375 -1.515625 L 2.515625 -2.109375 L 1.78125 -3.03125 L 1.5625 -3.421875 L 1.125 -4.546875 L 0.78125 -6.125 L 0.75 -6.546875 L 0.796875 -7.125 L 0.75 -8.140625 L 0.984375 -9.046875 L 1 -9.421875 L 1.640625 -10.96875 L 1.859375 -11.359375 L 2.171875 -11.640625 L 2.375 -11.96875 L 2.640625 -12.328125 L 3.25 -12.890625 L 4.28125 -13.59375 L 4.640625 -13.78125 L 6.203125 -14.328125 L 7.453125 -14.53125 L 9.484375 -14.4375 L 9.921875 -14.3125 L 10.34375 -14.25 L 10.671875 -14.109375 L 11.109375 -13.984375 L 12.5 -13.125 L 13.09375 -12.53125 L 13.609375 -11.875 L 13.890625 -11.578125 L 14.546875 -10.078125 L 14.40625 -9.625 L 14.0625 -9.5 L 13.671875 -9.453125 L 11.671875 -9.453125 L 11.21875 -9.65625 L 10.765625 -9.984375 L 10.5625 -10.3125 L 9.53125 -10.953125 L 9.15625 -11.046875 L 8.078125 -11.171875 L 7.515625 -11.15625 L 6.71875 -10.890625 L 6.359375 -10.71875 L 5.6875 -10.25 L 5.15625 -9.6875 L 4.84375 -8.921875 L 4.765625 -8.515625 L 4.546875 -7.78125 L 4.671875 -5.734375 L 4.8125 -5.34375 L 5.03125 -4.96875 L 5.203125 -4.625 L 5.421875 -4.28125 L 6.03125 -3.78125 L 6.78125 -3.390625 L 7.140625 -3.25 L 7.515625 -3.171875 L 8.140625 -3.125 L 8.734375 -3.15625 L 9.15625 -3.21875 L 9.921875 -3.453125 L 10.25 -3.625 L 10.84375 -4.203125 L 11.015625 -4.53125 L 10.9375 -4.875 L 10.640625 -5.09375 L 9.421875 -5.03125 L 9.046875 -5.078125 L 8.65625 -5.078125 L 8.265625 -5.265625 L 8.140625 -5.609375 L 8.0625 -6 L 8.109375 -7.53125 L 8.296875 -7.921875 L 8.921875 -8.140625 L 14.0625 -8.140625 L 14.65625 -7.96875 L 14.90625 -7.546875 L 14.96875 -7.140625 L 14.875 -5.59375 L 14.765625 -5.171875 L 14.734375 -4.796875 L 14.46875 -3.90625 L 14 -2.96875 L 13.34375 -2 L 12.75 -1.375 L 12.078125 -0.9375 L 11.796875 -0.703125 L 10.28125 -0.046875 L 9.921875 0.0625 L 9.53125 0.078125 L 9.125 0.15625 L 8.03125 0.265625 Z M 7.484375 0.25 "/></g></g></g><g fill="#271f0e" fill-opacity="1"><g transform="translate(158.27873, 291.462634)"><g><path d="M 1.578125 -0.65625 L 1.515625 -2.25 L 1.5625 -2.6875 L 1.46875 -3.875 L 1.53125 -4.703125 L 1.46875 -5.15625 L 1.5 -5.9375 L 1.53125 -6.359375 L 1.53125 -7.390625 L 1.46875 -7.984375 L 1.53125 -13.71875 L 1.703125 -14.140625 L 2.09375 -14.328125 L 2.53125 -14.3125 L 2.921875 -14.375 L 3.765625 -14.28125 L 4.15625 -14.34375 L 5.390625 -14.3125 L 5.734375 -14.34375 L 6.1875 -14.3125 L 6.59375 -14.34375 L 7.046875 -14.328125 L 7.640625 -14.34375 L 8.140625 -14.3125 L 9.84375 -13.953125 L 10.5625 -13.59375 L 11.578125 -12.8125 L 11.765625 -12.5 L 12.0625 -12.203125 L 12.609375 -11.078125 L 12.71875 -10.671875 L 12.765625 -10.28125 L 12.875 -9.890625 L 12.859375 -8.265625 L 12.625 -7.484375 L 12.484375 -7.140625 L 12.265625 -6.78125 L 12.125 -6.390625 L 11.875 -6.03125 L 11.296875 -5.484375 L 11.078125 -5.0625 L 11.140625 -4.5625 L 11.75 -3.5 L 12.015625 -3.171875 L 12.21875 -2.796875 L 12.46875 -2.4375 L 12.65625 -2.09375 L 13.296875 -1.078125 L 13.578125 -0.578125 L 13.484375 -0.140625 L 13.0625 -0.046875 L 12.609375 0 L 11.796875 0 L 11.375 -0.046875 L 10.9375 0 L 10.1875 -0.046875 L 9.6875 -0.15625 L 9.265625 -0.53125 L 9.03125 -0.859375 L 8.84375 -1.203125 L 8.578125 -1.59375 L 8 -2.625 L 7.859375 -3.015625 L 7.328125 -3.71875 L 7 -4.078125 L 6.484375 -4.234375 L 6.125 -4.21875 L 5.75 -4.21875 L 5.34375 -4.015625 L 5.15625 -3.609375 L 5.203125 -2.328125 L 5.140625 -1.453125 L 5.21875 -1.015625 L 5.171875 -0.59375 L 5.03125 -0.203125 L 4.40625 0 L 3.78125 0 L 3.359375 -0.046875 L 2.515625 0.015625 L 2.125 0 L 1.71875 -0.203125 Z M 5.75 -7.53125 L 6.203125 -7.53125 L 6.609375 -7.46875 L 8.203125 -7.609375 L 8.515625 -7.75 L 8.765625 -8 L 8.984375 -8.34375 L 9.15625 -8.765625 L 9.203125 -9.3125 L 9.171875 -9.90625 L 9.03125 -10.234375 L 8.828125 -10.546875 L 8.1875 -10.9375 L 7.25 -11.046875 L 6.125 -11.078125 L 5.796875 -11.046875 L 5.390625 -10.84375 L 5.140625 -10.4375 L 5.203125 -8.140625 L 5.40625 -7.71875 Z M 5.75 -7.53125 "/></g></g></g><g fill="#271f0e" fill-opacity="1"><g transform="translate(181.896318, 291.462634)"><g><path d="M 0.265625 -0.546875 L 0.515625 -1.40625 L 0.703125 -1.828125 L 0.9375 -2.15625 L 1.53125 -3.640625 L 2.109375 -4.703125 L 2.25 -5.109375 L 2.4375 -5.4375 L 2.5625 -5.875 L 2.84375 -6.40625 L 2.984375 -6.796875 L 3.296875 -7.328125 L 3.625 -8.0625 L 3.84375 -8.4375 L 3.953125 -8.78125 L 5.09375 -11.359375 L 5.328125 -11.734375 L 6.203125 -13.578125 L 6.328125 -13.9375 L 6.71875 -14.3125 L 7.375 -14.515625 L 8.0625 -14.328125 L 8.4375 -13.9375 L 8.5625 -13.546875 L 8.734375 -13.25 L 9.0625 -12.46875 L 9.484375 -11.703125 L 9.78125 -10.984375 L 9.890625 -10.671875 L 10.25 -9.890625 L 10.375 -9.5 L 10.78125 -8.78125 L 10.890625 -8.390625 L 11.09375 -8.046875 L 11.25 -7.703125 L 11.484375 -7.328125 L 11.609375 -6.921875 L 11.796875 -6.609375 L 11.9375 -6.203125 L 12.125 -5.859375 L 12.28125 -5.4375 L 12.5 -5.109375 L 12.796875 -4.359375 L 13 -4.015625 L 13.140625 -3.625 L 13.484375 -2.890625 L 13.609375 -2.5 L 13.8125 -2.1875 L 13.9375 -1.78125 L 14.203125 -1.4375 L 14.34375 -1.0625 L 14.46875 -0.546875 L 14.390625 -0.125 L 14.015625 0 L 12.75 0.046875 L 12.03125 -0.015625 L 11.671875 0.015625 L 11.140625 -0.1875 L 10.78125 -0.515625 L 10.5625 -0.875 L 10.453125 -1.25 L 10.03125 -1.578125 L 9.359375 -1.796875 L 8.390625 -1.765625 L 7.96875 -1.796875 L 7.59375 -1.796875 L 7.125 -1.734375 L 6.6875 -1.796875 L 5.546875 -1.78125 L 5.140625 -1.828125 L 4.640625 -1.609375 L 4.296875 -1.234375 L 3.953125 -0.53125 L 3.578125 -0.15625 L 3.109375 0.046875 L 2.578125 -0.015625 L 0.78125 -0.015625 L 0.375 -0.125 Z M 6.59375 -5.0625 L 8.1875 -5.078125 L 8.53125 -5.234375 L 8.578125 -5.609375 L 8.4375 -5.984375 L 8.234375 -6.390625 L 8.140625 -6.71875 L 7.921875 -7.0625 L 7.65625 -7.859375 L 7.40625 -8.03125 L 7.140625 -7.8125 L 6.953125 -7.484375 L 6.140625 -5.625 L 6.203125 -5.21875 Z M 6.59375 -5.0625 "/></g></g></g><g fill="#271f0e" fill-opacity="1"><g transform="translate(206.189275, 291.462634)"><g><path d="M 3.9375 -0.640625 L 3.90625 -2.234375 L 3.953125 -2.640625 L 3.890625 -3.890625 L 3.90625 -4.3125 L 3.890625 -4.734375 L 3.96875 -5.34375 L 3.90625 -5.9375 L 3.90625 -6.75 L 3.953125 -7.15625 L 3.90625 -7.546875 L 3.96875 -8.1875 L 3.90625 -10.4375 L 3.703125 -10.828125 L 3.34375 -11.046875 L 1.515625 -11.078125 L 0.984375 -11.015625 L 0.578125 -11.21875 L 0.34375 -11.671875 L 0.375 -13.71875 L 0.578125 -14.125 L 1.015625 -14.328125 L 7.125 -14.28125 L 7.59375 -14.34375 L 8 -14.34375 L 8.40625 -14.3125 L 8.828125 -14.3125 L 9.265625 -14.375 L 9.65625 -14.375 L 9.984375 -14.328125 L 10.484375 -14.375 L 10.890625 -14.171875 L 11.09375 -13.75 L 11.046875 -12.078125 L 11.09375 -11.640625 L 10.890625 -11.234375 L 10.421875 -11.046875 L 9.296875 -11.078125 L 8.921875 -11.03125 L 8.515625 -11.046875 L 8.171875 -11.03125 L 7.71875 -10.84375 L 7.546875 -10.484375 L 7.59375 -10.03125 L 7.53125 -9.625 L 7.609375 -5.546875 L 7.546875 -4.6875 L 7.59375 -4.3125 L 7.546875 -3.0625 L 7.484375 -2.640625 L 7.546875 -2.296875 L 7.578125 -1.46875 L 7.53125 -1 L 7.546875 -0.609375 L 7.390625 -0.203125 L 6.984375 -0.046875 L 5.703125 -0.046875 L 5.328125 0 L 4.90625 -0.046875 L 4.53125 0 L 4.09375 -0.203125 Z M 3.9375 -0.640625 "/></g></g></g><g fill="#271f0e" fill-opacity="1"><g transform="translate(227.064433, 291.462634)"><g><path d="M 0.984375 -0.59375 L 0.984375 -2.171875 L 1.015625 -2.5625 L 1.265625 -2.953125 L 2.625 -3.375 L 2.828125 -3.828125 L 2.859375 -4.625 L 2.78125 -5.5 L 2.890625 -5.921875 L 2.796875 -6.71875 L 2.84375 -7.125 L 2.859375 -7.96875 L 2.796875 -8.4375 L 2.78125 -8.78125 L 2.84375 -10.515625 L 2.578125 -10.890625 L 1.328125 -11.3125 L 1.125 -11.703125 L 1.125 -12.09375 L 1.078125 -12.5 L 1.078125 -12.953125 L 1.125 -13.296875 L 1.125 -13.6875 L 1.34375 -14.125 L 1.796875 -14.328125 L 2.59375 -14.28125 L 2.984375 -14.3125 L 4.234375 -14.28125 L 4.6875 -14.328125 L 7.28125 -14.3125 L 7.9375 -14.125 L 8.109375 -13.71875 L 8.140625 -13.296875 L 8.109375 -12.9375 L 8.109375 -11.734375 L 7.875 -11.34375 L 7.484375 -11.109375 L 7.046875 -11.09375 L 6.65625 -10.875 L 6.421875 -10.5 L 6.421875 -9.640625 L 6.46875 -9.203125 L 6.421875 -8.796875 L 6.46875 -8.40625 L 6.421875 -7.78125 L 6.46875 -7.15625 L 6.390625 -6.296875 L 6.46875 -5.484375 L 6.421875 -3.8125 L 6.65625 -3.390625 L 8.03125 -2.96875 L 8.3125 -2.625 L 8.25 -1.375 L 8.296875 -1 L 8.296875 -0.546875 L 8.0625 -0.1875 L 7.671875 0.015625 L 1.59375 -0.015625 L 1.1875 -0.15625 Z M 0.984375 -0.59375 "/></g></g></g><g fill="#271f0e" fill-opacity="1"><g transform="translate(245.790683, 291.462634)"><g><path d="M 7.65625 0.25 L 7.21875 0.203125 L 6.484375 0.046875 L 6.03125 0 L 5.4375 -0.203125 L 3.84375 -1.015625 L 3.171875 -1.5625 L 2.953125 -1.828125 L 2.640625 -2.109375 L 2.375 -2.4375 L 2.125 -2.6875 L 1.1875 -4.546875 L 1 -5.328125 L 0.96875 -5.703125 L 0.859375 -6.078125 L 0.796875 -6.515625 L 0.859375 -8.171875 L 1.203125 -9.75 L 1.515625 -10.515625 L 2.15625 -11.609375 L 3.15625 -12.765625 L 3.84375 -13.28125 L 4.21875 -13.46875 L 4.53125 -13.6875 L 6.0625 -14.265625 L 8.234375 -14.578125 L 8.78125 -14.546875 L 9.96875 -14.34375 L 11.546875 -13.859375 L 11.84375 -13.625 L 12.46875 -13.359375 L 12.9375 -13.03125 L 13.53125 -12.53125 L 14.109375 -11.890625 L 14.546875 -11.28125 L 14.9375 -10.515625 L 15.453125 -8.984375 L 15.59375 -8.140625 L 15.65625 -7.125 L 15.578125 -6.53125 L 15.5625 -6.09375 L 15.453125 -5.6875 L 15.4375 -5.328125 L 15.265625 -4.546875 L 14.96875 -3.765625 L 14.0625 -2.390625 L 13.78125 -2.109375 L 13.515625 -1.734375 L 12.9375 -1.25 L 12.546875 -1.0625 L 12.234375 -0.8125 L 11.5625 -0.453125 L 10.03125 0.0625 L 8.796875 0.21875 Z M 8.796875 -3.375 L 9.203125 -3.453125 L 9.515625 -3.609375 L 9.890625 -3.703125 L 10.875 -4.375 L 11.15625 -4.703125 L 11.28125 -5.015625 L 11.5 -5.390625 L 11.640625 -5.75 L 11.8125 -6.515625 L 11.84375 -7.75 L 11.796875 -8.125 L 11.609375 -8.515625 L 11.359375 -9.296875 L 10.5625 -10.125 L 9.921875 -10.578125 L 9.5625 -10.75 L 9.1875 -10.828125 L 8.203125 -10.953125 L 7.640625 -10.90625 L 6.84375 -10.703125 L 6.578125 -10.609375 L 5.546875 -9.90625 L 5.0625 -9.25 L 4.9375 -8.890625 L 4.765625 -8.515625 L 4.703125 -8.125 L 4.609375 -7.75 L 4.609375 -6.515625 L 4.765625 -5.75 L 4.953125 -5.390625 L 5.0625 -5.0625 L 5.34375 -4.671875 L 5.609375 -4.375 L 6.15625 -3.9375 L 6.484375 -3.75 L 7.21875 -3.4375 L 7.671875 -3.375 Z M 8.796875 -3.375 "/></g></g></g><g fill="#271f0e" fill-opacity="1"><g transform="translate(271.639038, 291.462634)"><g><path d="M 12.078125 -0.328125 L 11.8125 -0.59375 L 11.5625 -0.90625 L 11.234375 -1.171875 L 10.96875 -1.5 L 8.984375 -3.484375 L 8.65625 -3.75 L 5.734375 -6.609375 L 5.46875 -6.671875 L 5.265625 -6.421875 L 5.34375 -6 L 5.28125 -0.984375 L 5.34375 -0.578125 L 5.15625 -0.15625 L 4.75 0.046875 L 4.28125 0 L 3.84375 0.0625 L 2.828125 0 L 2.125 0.046875 L 1.734375 -0.1875 L 1.5625 -0.640625 L 1.5625 -1.015625 L 1.5 -1.4375 L 1.5625 -2.203125 L 1.515625 -2.625 L 1.53125 -3.453125 L 1.46875 -3.890625 L 1.46875 -4.28125 L 1.515625 -4.734375 L 1.515625 -5.109375 L 1.5625 -5.484375 L 1.46875 -8.40625 L 1.53125 -8.84375 L 1.515625 -9.265625 L 1.5625 -9.640625 L 1.5 -10.484375 L 1.53125 -10.890625 L 1.5 -13.75 L 1.765625 -14.140625 L 2.25 -14.390625 L 2.796875 -14.21875 L 3.625 -13.671875 L 4.734375 -12.546875 L 5 -12.203125 L 5.34375 -11.953125 L 5.546875 -11.640625 L 5.9375 -11.375 L 6.15625 -11.078125 L 6.796875 -10.546875 L 7.21875 -10.09375 L 7.453125 -9.796875 L 7.78125 -9.5625 L 8.5 -8.828125 L 8.796875 -8.578125 L 9.703125 -7.65625 L 9.984375 -7.578125 L 10.09375 -7.90625 L 10.078125 -8.71875 L 10.15625 -9.15625 L 10.15625 -9.53125 L 10.078125 -9.96875 L 10.09375 -13.6875 L 10.296875 -14.125 L 10.78125 -14.328125 L 11.203125 -14.3125 L 11.5625 -14.34375 L 12 -14.28125 L 12.4375 -14.328125 L 12.828125 -14.328125 L 13.25 -14.28125 L 13.6875 -14.078125 L 13.9375 -13.71875 L 13.890625 -12.65625 L 13.9375 -12.03125 L 13.859375 -11.625 L 13.859375 -10.8125 L 13.890625 -10.421875 L 13.84375 -9.59375 L 13.921875 -7.140625 L 13.875 -6.6875 L 13.953125 -6.125 L 13.859375 -0.546875 L 13.671875 -0.125 L 13.203125 0.109375 L 12.671875 -0.0625 Z M 12.078125 -0.328125 "/></g></g></g><g clip-path="url(#06d8a6f01f)"><path fill="#271f0e" d="M 263.003906 194.601562 C 263.414062 194.917969 263.882812 195.230469 264.292969 195.542969 C 259.171875 195.953125 253.582031 195.167969 248.710938 196.582031 C 248.433594 196.675781 248.054688 196.800781 247.738281 196.863281 C 243.78125 202.015625 235.144531 203.273438 229.238281 204.433594 C 221.984375 205.847656 213.691406 206.945312 206.21875 205.597656 C 193.683594 205.941406 180.996094 204.179688 168.335938 203.835938 C 162.464844 205.1875 156.402344 205.5 150.65625 207.195312 C 146.664062 208.390625 143.839844 206.914062 143.304688 203.363281 C 143.273438 203.304688 143.273438 203.207031 143.179688 203.144531 C 141.890625 202.234375 140.570312 201.324219 139.597656 200.035156 C 139.222656 199.5625 139.597656 199 140.101562 198.8125 C 141.386719 198.246094 144.121094 196.769531 146.257812 196.613281 C 147.105469 196.234375 148.015625 195.886719 148.800781 195.511719 C 152.945312 193.691406 156.277344 191.367188 159.761719 188.445312 C 162.148438 186.4375 164.820312 183.734375 167.929688 182.195312 C 165.917969 180.5625 164.003906 178.804688 162.214844 177.042969 C 151 170.921875 141.167969 163.917969 133.253906 153.582031 C 132.28125 152.292969 131.242188 151.035156 130.238281 149.8125 C 137.839844 147.082031 141.671875 145.761719 149.429688 143.277344 C 140.195312 143.96875 135.609375 144.410156 126.40625 145.445312 C 120.53125 139.101562 113.96875 133.824219 104.671875 129.617188 C 94.996094 125.1875 84.726562 121.792969 74.550781 118.589844 L 74.519531 118.589844 C 74.296875 118.496094 74.140625 118.433594 73.921875 118.371094 C 72.886719 118.058594 71.878906 117.714844 70.84375 117.367188 C 78.160156 114.097656 81.835938 112.53125 89.3125 109.515625 C 78.476562 111.335938 73.074219 112.375 62.332031 114.699219 C 54.039062 112.027344 45.90625 109.199219 38.335938 105.746094 C 36.671875 104.992188 35.035156 104.175781 33.402344 103.328125 C 23.917969 98.363281 15.375 92.082031 8.621094 83.097656 C 50.175781 78.703125 93.144531 83.507812 131.996094 98.644531 C 149.019531 105.304688 164.820312 114.917969 176.410156 127.011719 C 185.957031 136.964844 199.308594 162.816406 199.871094 164.136719 C 199.9375 164.105469 199.996094 164.039062 200.0625 164.007812 C 204.113281 170.574219 213.316406 173.683594 225.53125 175.722656 C 225.15625 175.757812 224.75 175.820312 224.371094 175.851562 C 224.90625 175.820312 225.472656 175.820312 226.035156 175.820312 C 226.035156 175.820312 226.035156 175.820312 226.066406 175.820312 C 229.554688 176.386719 233.324219 176.886719 237.28125 177.355469 C 237.941406 177.515625 238.535156 177.671875 239.070312 177.828125 C 243.9375 179.210938 249.90625 181.566406 251.855469 185.808594 C 252.515625 185.839844 253.144531 186.183594 253.613281 186.59375 C 254.492188 186.59375 255.339844 186.90625 255.875 187.535156 C 256.25 187.660156 256.691406 187.785156 257.035156 187.945312 C 259.707031 189.261719 262.597656 191.648438 263.035156 194.539062 C 263.035156 194.570312 263.003906 194.601562 263.003906 194.601562 " fill-opacity="1" fill-rule="nonzero"/></g><g clip-path="url(#c1f32b4008)"><path fill="#271f0e" d="M 324.160156 121.917969 C 319.414062 122.140625 317.0625 122.265625 312.351562 122.578125 C 314.863281 123.113281 316.121094 123.363281 318.664062 123.929688 C 305.347656 128.957031 292.875 134.859375 281.253906 141.769531 C 275.757812 142.460938 273.023438 142.839844 267.558594 143.65625 C 271.015625 144.125 272.742188 144.378906 276.195312 144.878906 C 262.789062 153.328125 250.566406 163.160156 239.636719 174.46875 C 221.640625 172.394531 207.660156 170.039062 202.824219 162.5 C 203.171875 162.28125 203.484375 162.09375 203.828125 161.9375 C 208.199219 158.417969 212.535156 154.742188 216.894531 151.128906 C 216.894531 151.128906 216.894531 151.128906 216.929688 151.101562 C 217.460938 150.597656 218.058594 150.15625 218.59375 149.683594 C 225.285156 144.03125 232.378906 138.503906 240.011719 133.605469 C 245.824219 129.835938 252.136719 126.601562 258.484375 123.585938 C 259.738281 122.988281 261.027344 122.390625 262.316406 121.859375 C 269.570312 118.78125 277.203125 115.824219 284.898438 113.191406 C 299.597656 109.921875 313.792969 107.410156 330.722656 107.878906 C 341.621094 108.195312 354.75 107.816406 366.375 110.394531 C 351.546875 113.378906 337.476562 117.175781 324.160156 121.917969 " fill-opacity="1" fill-rule="nonzero"/></g></svg>